<svg width="20" height="20" viewBox="0 0 20 20" fill="none" xmlns="http://www.w3.org/2000/svg">
<path d="M18.3307 14.582H1.66406" stroke="#606060" stroke-width="1.5" stroke-linecap="round" stroke-linejoin="round"/>
<path d="M18.3307 17.5V13.3333C18.3307 11.762 18.3307 10.9763 17.8426 10.4882C17.3544 10 16.5687 10 14.9974 10H4.9974C3.42605 10 2.64037 10 2.15222 10.4882C1.66406 10.9763 1.66406 11.762 1.66406 13.3333V17.5" stroke="#606060" stroke-width="1.5" stroke-linecap="round" stroke-linejoin="round"/>
<path d="M13.3307 10V8.84817C13.3307 8.42525 13.2545 8.28378 12.8637 8.11708C12.05 7.76991 11.0622 7.5 9.9974 7.5C8.93256 7.5 7.9448 7.76991 7.13106 8.11708C6.74035 8.28378 6.66406 8.42525 6.66406 8.84817V10" stroke="#606060" stroke-width="1.5" stroke-linecap="round"/>
<path d="M16.6693 10V6.13381C16.6693 5.55744 16.6693 5.26926 16.5269 4.99711C16.3846 4.72496 16.1819 4.58409 15.7763 4.30236C14.141 3.16648 12.1503 2.5 10.0026 2.5C7.85495 2.5 5.8642 3.16648 4.22896 4.30236C3.82337 4.58409 3.62058 4.72496 3.47826 4.99711C3.33594 5.26926 3.33594 5.55744 3.33594 6.13381V10" stroke="#606060" stroke-width="1.5" stroke-linecap="round"/>
</svg>
