<svg width="20" height="20" viewBox="0 0 20 20" fill="none" xmlns="http://www.w3.org/2000/svg">
<path d="M4.9974 16.668L4.16406 17.5013M14.9974 16.668L15.8307 17.5013" stroke="#606060" stroke-width="1.25" stroke-linecap="round"/>
<path d="M2.5 10V10.8333C2.5 13.5832 2.5 14.9581 3.35427 15.8124C4.20854 16.6667 5.58347 16.6667 8.33333 16.6667H11.6667C14.4165 16.6667 15.7914 16.6667 16.6457 15.8124C17.5 14.9581 17.5 13.5832 17.5 10.8333V10" stroke="#606060" stroke-width="1.25" stroke-linecap="round" stroke-linejoin="round"/>
<path d="M1.66406 10H18.3307" stroke="#606060" stroke-width="1.25" stroke-linecap="round"/>
<path d="M3.33594 10V4.60283C3.33594 3.44147 4.27741 2.5 5.43877 2.5C6.37065 2.5 7.19139 3.11332 7.45543 4.00701L7.5026 4.16667" stroke="#606060" stroke-width="1.25" stroke-linecap="round"/>
<path d="M6.66406 4.9987L8.7474 3.33203" stroke="#606060" stroke-width="1.25" stroke-linecap="round"/>
</svg>
