<svg width="20" height="20" viewBox="0 0 20 20" fill="none" xmlns="http://www.w3.org/2000/svg">
<path d="M18.3346 17.5V8.00887C18.3346 6.90642 18.3346 6.3552 18.0481 5.92829C17.7616 5.50139 17.2541 5.29667 16.2393 4.88723L11.2393 2.86997C10.628 2.62332 10.3223 2.5 10.0013 2.5C9.6803 2.5 9.37463 2.62332 8.7633 2.86997L3.76334 4.88723C2.74849 5.29667 2.24108 5.50139 1.95453 5.92829C1.66797 6.3552 1.66797 6.90642 1.66797 8.00887V17.5" stroke="#383838" stroke-width="1.25" stroke-linecap="round" stroke-linejoin="round"/>
<path d="M13.3346 15.833V17.4997M6.66797 15.833V17.4997" stroke="#383838" stroke-width="1.25" stroke-linecap="round" stroke-linejoin="round"/>
<path d="M6.25 11.6663L6.45212 10.8579C6.75527 9.64526 6.90684 9.03901 7.35894 8.68601C7.81104 8.33301 8.436 8.33301 9.68592 8.33301H10.3141C11.564 8.33301 12.1889 8.33301 12.6411 8.68601C13.0932 9.03901 13.2447 9.64526 13.5479 10.8579L13.75 11.6663" stroke="#383838" stroke-width="1.25" stroke-linecap="round" stroke-linejoin="round"/>
<path d="M14.1667 11.667H5.83333C5.3731 11.667 5 12.0401 5 12.5003V15.0003C5 15.4606 5.3731 15.8337 5.83333 15.8337H14.1667C14.6269 15.8337 15 15.4606 15 15.0003V12.5003C15 12.0401 14.6269 11.667 14.1667 11.667Z" stroke="#383838" stroke-width="1.25" stroke-linecap="round" stroke-linejoin="round"/>
<path d="M7.08203 13.7422V13.7505" stroke="#383838" stroke-width="1.25" stroke-linecap="round" stroke-linejoin="round"/>
<path d="M12.918 13.7422V13.7505" stroke="#383838" stroke-width="1.25" stroke-linecap="round" stroke-linejoin="round"/>
</svg>
