<svg width="124" height="124" viewBox="0 0 124 124" fill="none" xmlns="http://www.w3.org/2000/svg">
<path d="M38.75 62.0007H69.75M38.75 41.334H54.25M43.9167 103.334C49.3417 107.829 55.8775 110.691 63.364 111.182C69.2592 111.57 75.4178 111.57 81.3078 111.182C83.4125 111.037 85.4825 110.57 87.4458 109.797C89.5642 108.935 90.6182 108.506 91.1607 108.573C91.698 108.635 92.4782 109.203 94.0385 110.34C96.7923 112.345 100.259 113.781 105.405 113.662C108.004 113.6 109.306 113.564 109.885 112.587C110.468 111.606 109.745 110.252 108.293 107.54C106.278 103.778 105.007 99.4745 106.94 96.0231C110.262 91.0941 113.088 85.261 113.501 78.9576C113.723 75.5735 113.723 72.0653 113.501 68.676C113.232 64.586 112.238 60.5764 110.567 56.834" stroke="#EDEDED" stroke-width="8" stroke-linecap="round" stroke-linejoin="round"/>
<path d="M63.7825 90.3502C82.1552 89.1412 96.7872 74.4368 97.9859 55.9763C98.2235 52.3648 98.2235 48.6242 97.9859 45.0127C96.7872 26.5573 82.1552 11.853 63.7825 10.644C57.5154 10.2307 50.9692 10.2307 44.7175 10.644C26.3449 11.853 11.7129 26.5573 10.5142 45.0127C10.2765 48.6293 10.2765 52.3648 10.5142 55.9763C10.9482 62.7033 13.95 68.924 17.484 74.1837C19.5352 77.8623 18.1815 82.4503 16.0425 86.4648C14.5029 89.3582 13.733 90.8048 14.353 91.8485C14.973 92.8922 16.3525 92.9283 19.1167 92.9903C24.5779 93.1247 28.2617 91.5902 31.186 89.4512C32.8445 88.2422 33.6764 87.6377 34.2499 87.5653C34.8182 87.4982 35.9445 87.9528 38.192 88.8725C40.2174 89.6992 42.563 90.2055 44.7175 90.3502C50.9692 90.7635 57.5154 90.7635 63.7825 90.3502Z" stroke="#EDEDED" stroke-width="8" stroke-linecap="round" stroke-linejoin="round"/>
</svg>
