<svg width="17" height="16" viewBox="0 0 17 16" fill="none" xmlns="http://www.w3.org/2000/svg">
<path d="M3.83203 13.6667H13.1654" stroke="#0065FF" stroke-width="1.5" stroke-linecap="round" stroke-linejoin="round"/>
<path d="M11.7465 11.6666H5.2509C4.56548 11.6666 4.22277 11.6666 3.96285 11.4822C3.70292 11.2978 3.58969 10.9743 3.36322 10.3274L1.86618 6.05104C1.78651 5.81542 1.84872 5.55565 2.02686 5.38003C2.25106 5.15901 2.60233 5.12472 2.86614 5.2981L3.68769 5.83804C4.51696 6.38305 4.9316 6.65555 5.3508 6.55651C5.77 6.45746 6.01882 6.02819 6.51646 5.16966L7.99283 2.62267C8.09656 2.4437 8.28963 2.33325 8.4987 2.33325C8.70776 2.33325 8.90083 2.4437 9.00456 2.62267L10.4809 5.16966C10.9786 6.02819 11.2274 6.45746 11.6466 6.55651C12.0658 6.65555 12.4804 6.38305 13.3097 5.83804L14.1312 5.2981C14.395 5.12472 14.7464 5.15901 14.9706 5.38003C15.1487 5.55565 15.2109 5.81542 15.1312 6.05104L13.6342 10.3274C13.4077 10.9743 13.2945 11.2978 13.0346 11.4822C12.7746 11.6666 12.4319 11.6666 11.7465 11.6666Z" stroke="#0065FF" stroke-width="1.5" stroke-linecap="round" stroke-linejoin="round"/>
</svg>
