<svg width="16" height="16" viewBox="0 0 16 16" fill="none" xmlns="http://www.w3.org/2000/svg">
<path d="M3.33203 13.666H12.6654" stroke="#DD8800" stroke-width="1.5" stroke-linecap="round" stroke-linejoin="round"/>
<path d="M11.2465 11.6673H4.7509C4.06548 11.6673 3.72277 11.6673 3.46285 11.4829C3.20292 11.2985 3.08969 10.9751 2.86322 10.3281L1.36618 6.05177C1.28651 5.81615 1.34872 5.55638 1.52686 5.38076C1.75106 5.15974 2.10233 5.12545 2.36614 5.29883L3.18769 5.83877C4.01696 6.38378 4.4316 6.65628 4.8508 6.55724C5.27 6.45819 5.51882 6.02892 6.01646 5.17039L7.49283 2.6234C7.59656 2.44443 7.78963 2.33398 7.9987 2.33398C8.20776 2.33398 8.40083 2.44443 8.50456 2.6234L9.9809 5.17039C10.4786 6.02892 10.7274 6.45819 11.1466 6.55724C11.5658 6.65628 11.9804 6.38378 12.8097 5.83877L13.6312 5.29883C13.895 5.12545 14.2464 5.15974 14.4706 5.38076C14.6487 5.55638 14.7109 5.81615 14.6312 6.05177L13.1342 10.3281C12.9077 10.9751 12.7945 11.2985 12.5346 11.4829C12.2746 11.6673 11.9319 11.6673 11.2465 11.6673Z" stroke="#DD8800" stroke-width="1.5" stroke-linecap="round" stroke-linejoin="round"/>
</svg>
