<svg width="20" height="20" viewBox="0 0 20 20" fill="none" xmlns="http://www.w3.org/2000/svg">
<path d="M14.8087 4.16173L11.9287 3.05233C10.9728 2.68411 10.4949 2.5 10.0001 2.5C9.50517 2.5 9.02725 2.68411 8.07134 3.05233L5.19118 4.16181C3.39706 4.85293 2.49999 5.19848 2.5 5.83351C2.50001 6.46854 3.39707 6.81407 5.19122 7.50513L8.07118 8.61442C9.027 8.98258 9.50483 9.16667 9.99967 9.16667C10.4945 9.16667 10.9723 8.98258 11.9282 8.6145L14.8087 7.50508C16.6029 6.81404 17.5 6.46852 17.5 5.83348C17.5 5.19845 16.6029 4.85288 14.8087 4.16173Z" stroke="#606060" stroke-width="1.25" stroke-linecap="round" stroke-linejoin="round"/>
<path d="M13.75 7.92188L14.8087 8.32972C16.6029 9.02089 17.5 9.36639 17.5 10.0015C17.5 10.6365 16.6029 10.9821 14.8087 11.6731L11.9282 12.7825C10.9723 13.1506 10.4945 13.3346 9.99967 13.3346C9.50483 13.3346 9.027 13.1506 8.07118 12.7824L5.19122 11.6731C3.39707 10.9821 2.50001 10.6366 2.5 10.0015C2.49999 9.36647 3.39706 9.02089 5.19118 8.32978L6.25009 7.92188" stroke="#606060" stroke-width="1.25" stroke-linecap="round" stroke-linejoin="round"/>
<path d="M15.8307 8.75L7.29811 12.4068M4.16406 11.25L8.7474 9.16667" stroke="#606060" stroke-width="1.25" stroke-linecap="round" stroke-linejoin="round"/>
<path d="M13.8627 12.1289L14.8087 12.4933C16.6029 13.1845 17.5 13.5301 17.5 14.1652C17.5 14.8002 16.6029 15.1457 14.8087 15.8367L11.9282 16.9462C10.9723 17.3142 10.4945 17.4983 9.99967 17.4983C9.50483 17.4983 9.027 17.3142 8.07118 16.9461L5.19122 15.8367C3.39707 15.1457 2.50001 14.8002 2.5 14.1652C2.49999 13.5301 3.39706 13.1846 5.19118 12.4934L6.1373 12.129" stroke="#606060" stroke-width="1.25" stroke-linecap="round" stroke-linejoin="round"/>
</svg>
