<svg width="24" height="24" viewBox="0 0 24 24" fill="none" xmlns="http://www.w3.org/2000/svg">
<rect x="2.75" y="3.75" width="18.5" height="16.5" rx="3.25" stroke="#383838" stroke-width="1.5"/>
<path d="M17.788 9.01103C17.7288 8.87534 17.6156 8.76752 17.4731 8.71117C17.403 8.68272 17.3277 8.66763 17.2515 8.66675H14.3357C14.181 8.66675 14.0327 8.72525 13.9233 8.82939C13.8139 8.93352 13.7525 9.07476 13.7525 9.22204C13.7525 9.36931 13.8139 9.51055 13.9233 9.61468C14.0327 9.71882 14.181 9.77732 14.3357 9.77732H15.846L12.5862 12.8814L10.6675 11.0489C10.6133 10.9969 10.5488 10.9556 10.4778 10.9274C10.4067 10.8992 10.3305 10.8847 10.2535 10.8847C10.1765 10.8847 10.1003 10.8992 10.0292 10.9274C9.95816 10.9556 9.89367 10.9969 9.83945 11.0489L6.34047 14.3807C6.28581 14.4323 6.24242 14.4937 6.21282 14.5614C6.18321 14.629 6.16797 14.7016 6.16797 14.7749C6.16797 14.8482 6.18321 14.9208 6.21282 14.9885C6.24242 15.0561 6.28581 15.1175 6.34047 15.1692C6.39468 15.2212 6.45918 15.2625 6.53024 15.2907C6.60131 15.3189 6.67753 15.3334 6.75451 15.3334C6.8315 15.3334 6.90772 15.3189 6.97879 15.2907C7.04985 15.2625 7.11435 15.2212 7.16856 15.1692L10.2535 12.2261L12.1721 14.0586C12.2263 14.1106 12.2908 14.1519 12.3619 14.1801C12.4329 14.2083 12.5092 14.2228 12.5862 14.2228C12.6631 14.2228 12.7394 14.2083 12.8104 14.1801C12.8815 14.1519 12.946 14.1106 13.0002 14.0586L16.6683 10.5603V11.9985C16.6683 12.1457 16.7297 12.287 16.8391 12.3911C16.9485 12.4953 17.0968 12.5538 17.2515 12.5538C17.4061 12.5538 17.5545 12.4953 17.6638 12.3911C17.7732 12.287 17.8346 12.1457 17.8346 11.9985V9.22204C17.8337 9.14947 17.8179 9.07778 17.788 9.01103Z" fill="#383838"/>
</svg>
