<svg width="20" height="20" viewBox="0 0 20 20" fill="none" xmlns="http://www.w3.org/2000/svg">
<path d="M15 2.5V6.66667M5 2.5V6.66667" stroke="#383838" stroke-width="1.25" stroke-linecap="round" stroke-linejoin="round"/>
<path d="M17.0846 3.33301V4.58301M17.0846 4.58301V5.83301M17.0846 4.58301H18.3346M2.91797 3.33301V4.58301M2.91797 4.58301V5.83301M2.91797 4.58301H1.66797" stroke="#383838" stroke-width="1.25" stroke-linecap="round" stroke-linejoin="round"/>
<path d="M15 4.58301H5" stroke="#383838" stroke-width="1.25" stroke-linecap="round" stroke-linejoin="round"/>
<path d="M6.06507 15.833H13.9375C14.9688 15.833 15.4844 15.833 15.6976 15.5808C16.1815 15.0086 15.2545 14.2523 14.9162 13.871C14.535 13.4415 14.2562 13.333 13.6929 13.333H6.30974C5.74637 13.333 5.46757 13.4415 5.08642 13.871C4.74811 14.2523 3.82109 15.0086 4.305 15.5808C4.51818 15.833 5.03382 15.833 6.06507 15.833Z" stroke="#383838" stroke-width="1.25" stroke-linecap="round" stroke-linejoin="round"/>
<path d="M7.5 6.66699V13.3337M12.5 6.66699V13.3337" stroke="#383838" stroke-width="1.25" stroke-linecap="round" stroke-linejoin="round"/>
<path d="M13.3346 15.833V17.4997M6.66797 15.833V17.4997" stroke="#383838" stroke-width="1.25" stroke-linecap="round" stroke-linejoin="round"/>
</svg>
