<svg width="24" height="25" viewBox="0 0 24 25" fill="none" xmlns="http://www.w3.org/2000/svg">
<path d="M19.7453 13.5C20.5362 12.3662 21 10.9872 21 9.5C21 5.63401 17.866 2.5 14 2.5C10.134 2.5 7 5.634 7 9.5C7 10.5736 7.24169 11.5907 7.67363 12.5" stroke="#DD8800" stroke-width="1.5" stroke-linecap="round" stroke-linejoin="round"/>
<path d="M14 6.5C12.8954 6.5 12 7.17157 12 8C12 8.82843 12.8954 9.5 14 9.5C15.1046 9.5 16 10.1716 16 11C16 11.8284 15.1046 12.5 14 12.5M14 6.5C14.8708 6.5 15.6116 6.9174 15.8862 7.5M14 6.5V5.5M14 12.5C13.1292 12.5 12.3884 12.0826 12.1138 11.5M14 12.5V13.5" stroke="#DD8800" stroke-width="1.5" stroke-linecap="round"/>
<path d="M3 14.5H5.39482C5.68897 14.5 5.97908 14.5663 6.24217 14.6936L8.28415 15.6816C8.54724 15.8089 8.83735 15.8751 9.1315 15.8751H10.1741C11.1825 15.8751 12 16.6662 12 17.642C12 17.6814 11.973 17.7161 11.9338 17.7269L9.39287 18.4295C8.93707 18.5555 8.449 18.5116 8.025 18.3064L5.84211 17.2503M12 17L16.5928 15.5889C17.407 15.3352 18.2871 15.636 18.7971 16.3423C19.1659 16.8529 19.0157 17.5842 18.4785 17.8942L10.9629 22.2305C10.4849 22.5063 9.92094 22.5736 9.39516 22.4176L3 20.5199" stroke="#DD8800" stroke-width="1.5" stroke-linecap="round" stroke-linejoin="round"/>
</svg>
