<svg width="41" height="32" viewBox="0 0 41 32" fill="none" xmlns="http://www.w3.org/2000/svg">
<path d="M14.9414 5.92969H26.0162V25.9097H14.9414V5.92969Z" fill="#FF5F00"/>
<path d="M15.6455 15.9191C15.6455 11.8596 17.544 8.2589 20.462 5.92901C18.3175 4.23462 15.6104 3.21094 12.6571 3.21094C5.6604 3.21094 0 8.89423 0 15.9191C0 22.944 5.6604 28.6273 12.657 28.6273C15.6103 28.6273 18.3174 27.6036 20.462 25.9091C17.544 23.6146 15.6455 19.9786 15.6455 15.9191Z" fill="#EB001B"/>
<path d="M40.962 15.9191C40.962 22.9438 35.3016 28.6273 28.3051 28.6273C25.3518 28.6273 22.6447 27.6036 20.5 25.9091C23.4533 23.5793 25.3167 19.9786 25.3167 15.9191C25.3167 11.8596 23.418 8.2589 20.5 5.92901C22.6445 4.23462 25.3518 3.21094 28.3051 3.21094C35.3016 3.21094 40.962 8.92961 40.962 15.9191Z" fill="#F79E1B"/>
</svg>
