<svg width="20" height="20" viewBox="0 0 20 20" fill="none" xmlns="http://www.w3.org/2000/svg">
<path fill-rule="evenodd" clip-rule="evenodd" d="M9.95349 1.03906H10.0491C11.9728 1.03905 13.4803 1.03904 14.6565 1.19718C15.8605 1.35905 16.8105 1.69683 17.5562 2.44251C18.3019 3.18818 18.6396 4.1382 18.8015 5.34215C18.9597 6.51839 18.9596 8.02592 18.9596 9.94959V10.0452C18.9596 10.3072 18.9596 10.5615 18.9592 10.8083C18.9595 10.8157 18.9596 10.8232 18.9596 10.8307C18.9596 10.839 18.9595 10.8472 18.9592 10.8554C18.9563 12.3987 18.9367 13.6468 18.8015 14.6526C18.6396 15.8566 18.3019 16.8066 17.5562 17.5523C16.8105 18.298 15.8605 18.6357 14.6565 18.7976C13.4803 18.9557 11.9728 18.9557 10.0491 18.9557H9.95349C8.02983 18.9557 6.5223 18.9557 5.34606 18.7976C4.14211 18.6357 3.19209 18.298 2.44642 17.5523C1.70074 16.8066 1.36296 15.8566 1.20109 14.6526C1.06586 13.6468 1.04628 12.3987 1.04345 10.8554C1.04313 10.8472 1.04297 10.839 1.04297 10.8307C1.04297 10.8232 1.0431 10.8157 1.04336 10.8083C1.04297 10.5615 1.04297 10.3072 1.04297 10.0452V9.94958C1.04296 8.02592 1.04295 6.51839 1.20109 5.34215C1.36296 4.1382 1.70074 3.18818 2.44642 2.44251C3.19209 1.69683 4.14211 1.35905 5.34606 1.19718C6.5223 1.03904 8.02983 1.03905 9.95349 1.03906ZM2.29589 11.4557C2.30375 12.7079 2.33279 13.6891 2.43994 14.4861C2.58318 15.5514 2.85559 16.1937 3.3303 16.6684C3.80501 17.1431 4.44728 17.4155 5.51262 17.5588C6.59593 17.7044 8.01945 17.7057 10.0013 17.7057C11.9832 17.7057 13.4067 17.7044 14.49 17.5588C15.5553 17.4155 16.1976 17.1431 16.6723 16.6684C17.147 16.1937 17.4194 15.5514 17.5627 14.4861C17.6698 13.6891 17.6989 12.7079 17.7067 11.4557H15.7011C14.8896 11.4557 14.6774 11.4691 14.4993 11.551C14.3211 11.633 14.1729 11.7854 13.6448 12.4015L13.1402 12.9901C13.1157 13.0188 13.0914 13.0471 13.0675 13.0751C12.649 13.5643 12.3176 13.9518 11.859 14.1627C11.4004 14.3737 10.8905 14.3732 10.2468 14.3725C10.2099 14.3724 10.1726 14.3724 10.1349 14.3724H9.86775C9.83 14.3724 9.79271 14.3724 9.75585 14.3725C9.11209 14.3732 8.60225 14.3737 8.1436 14.1627C7.68496 13.9518 7.35356 13.5643 6.93513 13.0751C6.91117 13.0471 6.88693 13.0188 6.86236 12.9901L6.35784 12.4015C5.82972 11.7854 5.68148 11.633 5.50335 11.551C5.32521 11.4691 5.11303 11.4557 4.30152 11.4557H2.29589ZM17.7096 10.2057H15.7011C15.6633 10.2057 15.626 10.2057 15.5892 10.2057C14.9454 10.205 14.4356 10.2044 13.9769 10.4154C13.5183 10.6263 13.1869 11.0138 12.7685 11.503C12.7445 11.531 12.7203 11.5594 12.6957 11.588L12.1912 12.1766C11.663 12.7928 11.5148 12.9452 11.3367 13.0271C11.1585 13.109 10.9464 13.1224 10.1349 13.1224H9.86775C9.05624 13.1224 8.84406 13.109 8.66593 13.0271C8.48779 12.9452 8.33955 12.7928 7.81143 12.1766L7.30691 11.588C7.28234 11.5594 7.2581 11.531 7.23415 11.503C6.81571 11.0138 6.48431 10.6263 6.02567 10.4154C5.56702 10.2044 5.05718 10.205 4.41342 10.2057C4.37656 10.2057 4.33927 10.2057 4.30152 10.2057H2.29298C2.29297 10.137 2.29297 10.0675 2.29297 9.9974C2.29297 8.01554 2.2943 6.59203 2.43994 5.50871C2.58318 4.44337 2.85559 3.80111 3.3303 3.32639C3.80501 2.85168 4.44728 2.57927 5.51262 2.43604C6.59593 2.29039 8.01945 2.28906 10.0013 2.28906C11.9832 2.28906 13.4067 2.29039 14.49 2.43604C15.5553 2.57927 16.1976 2.85168 16.6723 3.32639C17.147 3.80111 17.4194 4.44337 17.5627 5.50871C17.7083 6.59203 17.7096 8.01554 17.7096 9.9974C17.7096 10.0675 17.7096 10.137 17.7096 10.2057Z" fill="#DD8800"/>
</svg>
