<svg width="32" height="32" viewBox="0 0 32 32" fill="none" xmlns="http://www.w3.org/2000/svg">
<path fill-rule="evenodd" clip-rule="evenodd" d="M19.0013 3.33333C19.0013 3.24493 18.9662 3.16014 18.9037 3.09763C18.8412 3.03512 18.7564 3 18.668 3H9.33464C8.36217 3 7.42954 3.38631 6.74191 4.07394C6.05428 4.76158 5.66797 5.69421 5.66797 6.66667V25.3333C5.66797 26.3058 6.05428 27.2384 6.74191 27.9261C7.42954 28.6137 8.36217 29 9.33464 29H22.668C23.6404 29 24.5731 28.6137 25.2607 27.9261C25.9483 27.2384 26.3346 26.3058 26.3346 25.3333V12.196C26.3346 12.1076 26.2995 12.0228 26.237 11.9603C26.1745 11.8978 26.0897 11.8627 26.0013 11.8627H20.0013C19.7361 11.8627 19.4817 11.7573 19.2942 11.5698C19.1067 11.3822 19.0013 11.1279 19.0013 10.8627V3.33333ZM20.0013 16.3333C20.2665 16.3333 20.5209 16.4387 20.7084 16.6262C20.8959 16.8138 21.0013 17.0681 21.0013 17.3333C21.0013 17.5985 20.8959 17.8529 20.7084 18.0404C20.5209 18.228 20.2665 18.3333 20.0013 18.3333H12.0013C11.7361 18.3333 11.4817 18.228 11.2942 18.0404C11.1067 17.8529 11.0013 17.5985 11.0013 17.3333C11.0013 17.0681 11.1067 16.8138 11.2942 16.6262C11.4817 16.4387 11.7361 16.3333 12.0013 16.3333H20.0013ZM20.0013 21.6667C20.2665 21.6667 20.5209 21.772 20.7084 21.9596C20.8959 22.1471 21.0013 22.4015 21.0013 22.6667C21.0013 22.9319 20.8959 23.1862 20.7084 23.3738C20.5209 23.5613 20.2665 23.6667 20.0013 23.6667H12.0013C11.7361 23.6667 11.4817 23.5613 11.2942 23.3738C11.1067 23.1862 11.0013 22.9319 11.0013 22.6667C11.0013 22.4015 11.1067 22.1471 11.2942 21.9596C11.4817 21.772 11.7361 21.6667 12.0013 21.6667H20.0013Z" fill="#F74A55"/>
<path d="M21 3.76593C21 3.52059 21.2573 3.36459 21.448 3.51793C21.6098 3.64859 21.7533 3.80059 21.8787 3.97393L25.896 9.56993C25.9867 9.69793 25.888 9.86326 25.7307 9.86326H21.3333C21.2449 9.86326 21.1601 9.82814 21.0976 9.76563C21.0351 9.70312 21 9.61833 21 9.52993V3.76593Z" fill="#F74A55"/>
</svg>
