<svg width="24" height="25" viewBox="0 0 24 25" fill="none" xmlns="http://www.w3.org/2000/svg">
<path d="M2 10.5H8.13008C8.36879 10.5 8.59962 10.4045 8.78087 10.2308L11.3492 7.7692C11.7237 7.41027 12.2763 7.41027 12.6508 7.7692L15.2191 10.2308C15.4004 10.4045 15.6312 10.5 15.8699 10.5H22" stroke="#DD8800" stroke-width="1.5" stroke-linecap="round" stroke-linejoin="round"/>
<path d="M3 10.5L4.961 5.92432C5.82259 3.91397 6.45038 3.5 8.63758 3.5H15.3624C17.5496 3.5 18.1774 3.91397 19.039 5.92432L21 10.5" stroke="#DD8800" stroke-width="1.5" stroke-linecap="round" stroke-linejoin="round"/>
<path d="M3 10.5V21.5" stroke="#DD8800" stroke-width="1.5" stroke-linecap="round" stroke-linejoin="round"/>
<path d="M21 10.5V21.5" stroke="#DD8800" stroke-width="1.5" stroke-linecap="round" stroke-linejoin="round"/>
<path d="M2 21.5H22" stroke="#DD8800" stroke-width="1.5" stroke-linecap="round" stroke-linejoin="round"/>
<path d="M12.009 11.5H12" stroke="#DD8800" stroke-width="2" stroke-linecap="round" stroke-linejoin="round"/>
<path d="M9.5 21.5V17C9.5 16.1716 10.1716 15.5 11 15.5H13C13.8284 15.5 14.5 16.1716 14.5 17V21.5" stroke="#DD8800" stroke-width="1.5" stroke-linecap="round" stroke-linejoin="round"/>
<path d="M6 14.5H7" stroke="#DD8800" stroke-width="1.5" stroke-linecap="round" stroke-linejoin="round"/>
<path d="M17 14.5H18" stroke="#DD8800" stroke-width="1.5" stroke-linecap="round" stroke-linejoin="round"/>
</svg>
