<svg width="24" height="25" viewBox="0 0 24 25" fill="none" xmlns="http://www.w3.org/2000/svg">
<path d="M6 8.5V16.5" stroke="#DD8800" stroke-width="1.5" stroke-linecap="round" stroke-linejoin="round"/>
<path d="M18 16.5V12.5C18 9.67157 18 8.25736 17.1213 7.37868C16.2426 6.5 14.8284 6.5 12 6.5H11M11 6.5C11 5.79977 12.9943 4.49153 13.5 4M11 6.5C11 7.20023 12.9943 8.50847 13.5 9" stroke="#DD8800" stroke-width="1.5" stroke-linecap="round" stroke-linejoin="round"/>
<path d="M6 20.5C7.10457 20.5 8 19.6046 8 18.5C8 17.3954 7.10457 16.5 6 16.5C4.89543 16.5 4 17.3954 4 18.5C4 19.6046 4.89543 20.5 6 20.5Z" stroke="#DD8800" stroke-width="1.5"/>
<path d="M6 8.5C7.10457 8.5 8 7.60457 8 6.5C8 5.39543 7.10457 4.5 6 4.5C4.89543 4.5 4 5.39543 4 6.5C4 7.60457 4.89543 8.5 6 8.5Z" stroke="#DD8800" stroke-width="1.5"/>
<path d="M18 20.5C19.1046 20.5 20 19.6046 20 18.5C20 17.3954 19.1046 16.5 18 16.5C16.8954 16.5 16 17.3954 16 18.5C16 19.6046 16.8954 20.5 18 20.5Z" stroke="#DD8800" stroke-width="1.5"/>
</svg>
