<svg width="24" height="25" viewBox="0 0 24 25" fill="none" xmlns="http://www.w3.org/2000/svg">
<path d="M6.98438 4.20214C9.78139 7.2967 14.3941 0.617839 17.1235 3.04168C18.694 4.43633 18.1975 7.51567 16.1587 9.52193" stroke="#DD8800" stroke-width="1.5" stroke-linecap="round"/>
<path d="M13.7916 14.482C13.8094 14.1475 13.9034 13.5354 13.3947 13.0703M13.3947 13.0703C13.2373 12.9263 13.022 12.7964 12.7291 12.6932C11.6807 12.3237 10.393 13.5604 11.304 14.6925C11.7937 15.3011 12.1712 15.4882 12.1357 16.1793C12.1107 16.6654 11.633 17.1733 11.0037 17.3667C10.457 17.5348 9.85393 17.3123 9.47247 16.886C9.00671 16.3656 9.05375 15.875 9.04977 15.6611M13.3947 13.0703L13.9688 12.4961M9.51399 16.9509L8.96875 17.4961" stroke="#DD8800" stroke-width="1.5" stroke-linecap="round" stroke-linejoin="round"/>
<path d="M18.2726 7.13492C19.1981 7.31267 19.4057 7.89712 19.682 9.5189C19.9309 10.9795 20.0007 12.7323 20.0007 13.4784C19.9753 13.7534 19.8625 14.01 19.682 14.2193C17.7469 16.2474 13.9064 20.0772 11.9681 21.9797C11.2074 22.6588 10.0597 22.6735 9.25241 22.0501C7.59928 20.5631 6.01095 18.8822 4.45501 17.3644C3.82993 16.5593 3.84458 15.4148 4.52567 14.6563C6.57621 12.5291 10.2867 8.88789 12.3813 6.87637C12.5913 6.69642 12.8486 6.58386 13.1243 6.55859C13.5943 6.55847 14.4005 6.62164 15.1859 6.66717" stroke="#DD8800" stroke-width="1.5" stroke-linecap="round"/>
</svg>
