<svg width="24" height="24" viewBox="0 0 24 24" fill="none" xmlns="http://www.w3.org/2000/svg">
<path d="M17.0578 15.521C17.5256 15.2015 18.0742 15.0211 18.6403 15.0004C19.2064 14.9798 19.7668 15.1199 20.2566 15.4044C20.7464 15.689 21.1456 16.1064 21.4081 16.6084C21.6706 17.1104 21.7856 17.6764 21.7398 18.241C20.5399 18.6603 19.2655 18.8235 17.9988 18.72C17.9949 17.5866 17.6685 16.4768 17.0578 15.522C16.5157 14.6718 15.7679 13.972 14.8836 13.4875C13.9993 13.003 13.0071 12.7493 11.9988 12.75C10.9906 12.7495 9.99859 13.0032 9.11449 13.4877C8.2304 13.9723 7.48277 14.6719 6.94076 15.522M17.9978 18.719L17.9988 18.75C17.9988 18.975 17.9868 19.197 17.9618 19.416C16.1471 20.4571 14.0909 21.0033 11.9988 21C9.82876 21 7.79176 20.424 6.03576 19.416C6.01006 19.1846 5.9977 18.9519 5.99876 18.719M5.99876 18.719C4.73239 18.8263 3.45867 18.6637 2.25976 18.242C2.21412 17.6776 2.32916 17.1117 2.59159 16.6099C2.85403 16.1081 3.25313 15.6908 3.74277 15.4063C4.2324 15.1218 4.79256 14.9817 5.35848 15.0021C5.92441 15.0226 6.47297 15.2028 6.94076 15.522M5.99876 18.719C6.00236 17.5857 6.33039 16.4769 6.94076 15.522M14.9988 6.75C14.9988 7.54565 14.6827 8.30871 14.1201 8.87132C13.5575 9.43393 12.7944 9.75 11.9988 9.75C11.2031 9.75 10.4401 9.43393 9.87744 8.87132C9.31483 8.30871 8.99876 7.54565 8.99876 6.75C8.99876 5.95435 9.31483 5.19129 9.87744 4.62868C10.4401 4.06607 11.2031 3.75 11.9988 3.75C12.7944 3.75 13.5575 4.06607 14.1201 4.62868C14.6827 5.19129 14.9988 5.95435 14.9988 6.75ZM20.9988 9.75C20.9988 10.0455 20.9406 10.3381 20.8275 10.611C20.7144 10.884 20.5487 11.1321 20.3398 11.341C20.1308 11.5499 19.8828 11.7157 19.6098 11.8287C19.3368 11.9418 19.0442 12 18.7488 12C18.4533 12 18.1607 11.9418 17.8877 11.8287C17.6147 11.7157 17.3667 11.5499 17.1578 11.341C16.9488 11.1321 16.7831 10.884 16.67 10.611C16.557 10.3381 16.4988 10.0455 16.4988 9.75C16.4988 9.15326 16.7358 8.58097 17.1578 8.15901C17.5797 7.73705 18.152 7.5 18.7488 7.5C19.3455 7.5 19.9178 7.73705 20.3398 8.15901C20.7617 8.58097 20.9988 9.15326 20.9988 9.75ZM7.49876 9.75C7.49876 10.0455 7.44057 10.3381 7.32749 10.611C7.21442 10.884 7.04869 11.1321 6.83975 11.341C6.63082 11.5499 6.38278 11.7157 6.1098 11.8287C5.83682 11.9418 5.54424 12 5.24876 12C4.95329 12 4.66071 11.9418 4.38773 11.8287C4.11474 11.7157 3.86671 11.5499 3.65777 11.341C3.44884 11.1321 3.28311 10.884 3.17004 10.611C3.05696 10.3381 2.99876 10.0455 2.99876 9.75C2.99876 9.15326 3.23582 8.58097 3.65777 8.15901C4.07973 7.73705 4.65203 7.5 5.24876 7.5C5.8455 7.5 6.4178 7.73705 6.83975 8.15901C7.26171 8.58097 7.49876 9.15326 7.49876 9.75Z" stroke="white" stroke-width="1.5" stroke-linecap="round" stroke-linejoin="round"/>
</svg>
