<svg width="58" height="20" viewBox="0 0 58 20" fill="none" xmlns="http://www.w3.org/2000/svg">
<g clip-path="url(#clip0_2567_65181)">
<path d="M29.9962 6.58625C29.9631 9.19534 32.3214 10.6512 34.0979 11.5169C35.9231 12.4051 36.5361 12.9746 36.5289 13.769C36.5153 14.9845 35.073 15.521 33.7234 15.5418C31.3687 15.5783 29.9996 14.9061 28.9112 14.3977L28.0629 18.3668C29.155 18.87 31.177 19.3089 33.2739 19.3281C38.1959 19.3281 41.4161 16.8985 41.4335 13.1314C41.4528 8.35049 34.8206 8.08587 34.8659 5.94893C34.8816 5.30096 35.4999 4.60949 36.8547 4.43368C37.5253 4.34487 39.3766 4.2769 41.4754 5.24341L42.2992 1.40318C41.1705 0.992197 39.7198 0.598658 37.9137 0.598658C33.2809 0.598658 30.0225 3.06139 29.9962 6.58625ZM50.2149 0.92944C49.3161 0.92944 48.5587 1.4537 48.2207 2.25823L41.1897 19.0461H46.1082L47.0869 16.3411H53.0972L53.665 19.0461H58L54.2171 0.92944H50.2149ZM50.9029 5.82342L52.3223 12.6264H48.435L50.9029 5.82342ZM24.0328 0.929665L20.1559 19.0458H24.8428L28.7179 0.929213L24.0328 0.929665ZM17.0994 0.929665L12.221 13.2603L10.2476 2.7757C10.0161 1.60527 9.1017 0.92944 8.08624 0.92944H0.111695L0 1.45552C1.63714 1.81077 3.49722 2.38374 4.62414 2.99682C5.3138 3.37133 5.51045 3.69871 5.73702 4.58865L9.47462 19.0461H14.4275L22.021 0.92944L17.0994 0.929665Z" fill="url(#paint0_linear_2567_65181)"/>
</g>
<defs>
<linearGradient id="paint0_linear_2567_65181" x1="2666.49" y1="56.8994" x2="2720.71" y2="-1866.64" gradientUnits="userSpaceOnUse">
<stop stop-color="#222357"/>
<stop offset="1" stop-color="#254AA5"/>
</linearGradient>
<clipPath id="clip0_2567_65181">
<rect width="58" height="18.8047" fill="white" transform="translate(0 0.597656)"/>
</clipPath>
</defs>
</svg>
