<svg width="17" height="17" viewBox="0 0 17 17" fill="none" xmlns="http://www.w3.org/2000/svg">
<path d="M13.1233 9.7967L12.6764 7.36437C12.4834 6.31381 12.3869 5.78852 12.0047 5.47751C11.6225 5.1665 11.0735 5.1665 9.97547 5.1665H7.02457C5.92653 5.1665 5.37752 5.1665 4.99532 5.47751C4.61312 5.78852 4.51661 6.31381 4.32359 7.36437L3.87671 9.7967C3.47605 11.9773 3.27573 13.0676 3.89259 13.7838C4.50946 14.4998 5.64903 14.4998 7.9282 14.4998H9.0718C11.351 14.4998 12.4905 14.4998 13.1074 13.7838C13.7243 13.0676 13.5239 11.9773 13.1233 9.7967Z" stroke="white" stroke-linecap="round"/>
<path d="M8.4987 7.5V11.8333M6.83203 10.5L8.4987 12.1667L10.1654 10.5" stroke="white" stroke-linecap="round" stroke-linejoin="round"/>
<path d="M14.4987 7.83333C14.6032 7.7806 14.6941 7.71413 14.7748 7.63033C15.1654 7.225 15.1654 6.57262 15.1654 5.26784C15.1654 3.96307 15.1654 3.31068 14.7748 2.90534C14.3843 2.5 13.7558 2.5 12.4987 2.5H4.4987C3.24162 2.5 2.61308 2.5 2.22256 2.90534C1.83203 3.31068 1.83203 3.96307 1.83203 5.26784C1.83203 6.57262 1.83203 7.225 2.22256 7.63033C2.30328 7.71413 2.39418 7.7806 2.4987 7.83333" stroke="white" stroke-linecap="round"/>
</svg>
