<svg width="146" height="146" viewBox="0 0 146 146" fill="none" xmlns="http://www.w3.org/2000/svg">
<g filter="url(#filter0_d_2567_58495)">
<circle cx="73" cy="71" r="62" fill="#F6F8FB"/>
</g>
<mask id="mask0_2567_58495" style="mask-type:alpha" maskUnits="userSpaceOnUse" x="11" y="9" width="124" height="124">
<circle cx="73" cy="71" r="62" fill="#F6F8FE"/>
</mask>
<g mask="url(#mask0_2567_58495)">
</g>
<g clip-path="url(#clip0_2567_58495)">
<path d="M73.2578 117.758C98.9391 117.758 119.758 96.9391 119.758 71.2578C119.758 45.5766 98.9391 24.7578 73.2578 24.7578C47.5766 24.7578 26.7578 45.5766 26.7578 71.2578C26.7578 96.9391 47.5766 117.758 73.2578 117.758Z" fill="#04A755"/>
<path d="M61.375 92.2346L85.2851 116.145C105.088 110.864 119.757 92.8213 119.757 71.2582C119.757 70.8182 119.757 70.3781 119.757 69.9381L100.981 52.6289L61.375 92.2346Z" fill="#217D43"/>
<path d="M74.4302 81.6717C76.4838 83.7253 76.4838 87.2458 74.4302 89.2995L70.1762 93.5534C68.1226 95.607 64.6021 95.607 62.5485 93.5534L43.9191 74.7774C41.8655 72.7238 41.8655 69.2033 43.9191 67.1496L48.1731 62.8957C50.2267 60.8421 53.7472 60.8421 55.8008 62.8957L74.4302 81.6717Z" fill="white"/>
<path d="M90.7139 49.2551C92.7675 47.2014 96.288 47.2014 98.3416 49.2551L102.596 53.509C104.649 55.5626 104.649 59.0831 102.596 61.1368L70.3243 93.2614C68.2706 95.315 64.7501 95.315 62.6965 93.2614L58.4426 89.0074C56.3889 86.9538 56.3889 83.4333 58.4426 81.3797L90.7139 49.2551Z" fill="white"/>
</g>
<circle cx="13.8379" cy="126.537" r="1.2871" transform="rotate(180 13.8379 126.537)" fill="#F1F3F7"/>
<circle cx="30.8887" cy="129.119" r="1.2871" transform="rotate(180 30.8887 129.119)" fill="#C1CBD4"/>
<path d="M18.8896 119.4L17.9359 120.354L17.2464 119.664L18.2001 118.71L17.1223 117.632L17.8488 116.906L18.9266 117.984L19.883 117.028L20.5725 117.717L19.6162 118.673L20.6491 119.706L19.9226 120.433L18.8896 119.4Z" fill="#85C0F9"/>
<circle cx="1.2871" cy="1.2871" r="1.2871" transform="matrix(1 0 0 -1 34.0117 13.6406)" fill="#C1CBD4"/>
<circle cx="1.2871" cy="1.2871" r="1.2871" transform="matrix(1 0 0 -1 20.0625 16.2227)" fill="#F1F3F7"/>
<path d="M18.8838 30.0171L19.8375 30.9708L20.527 30.2813L19.5733 29.3276L20.6512 28.2497L19.9247 27.5232L18.8468 28.6011L17.8905 27.6447L17.2009 28.3342L18.1573 29.2906L17.1243 30.3235L17.8508 31.05L18.8838 30.0171Z" fill="#85C0F9"/>
<path d="M20.5583 89.4885C19.936 89.4387 18.5421 89.8171 17.9447 91.7288C17.198 94.1183 17.198 98.8975 11 98.9722" stroke="#FE5284" stroke-width="2.06667" stroke-linecap="round"/>
<path d="M135.692 110.939C134.148 110.921 130.946 109.894 130.496 105.925C130.08 102.255 134.848 102.388 133.735 105.333C132.794 107.823 125.671 110.415 123.018 100.948" stroke="#F39958" stroke-width="2.06667" stroke-linecap="round"/>
<path d="M98.9805 15.1641C100.949 13.6527 105.551 10.9985 110.859 13.8047" stroke="#85C0F9" stroke-width="2.06667" stroke-linecap="round"/>
<defs>
<filter id="filter0_d_2567_58495" x="0.666667" y="0.733334" width="144.667" height="144.667" filterUnits="userSpaceOnUse" color-interpolation-filters="sRGB">
<feFlood flood-opacity="0" result="BackgroundImageFix"/>
<feColorMatrix in="SourceAlpha" type="matrix" values="0 0 0 0 0 0 0 0 0 0 0 0 0 0 0 0 0 0 127 0" result="hardAlpha"/>
<feOffset dy="2.06667"/>
<feGaussianBlur stdDeviation="5.16667"/>
<feComposite in2="hardAlpha" operator="out"/>
<feColorMatrix type="matrix" values="0 0 0 0 0.905882 0 0 0 0 0.933333 0 0 0 0 0.984314 0 0 0 0.15 0"/>
<feBlend mode="normal" in2="BackgroundImageFix" result="effect1_dropShadow_2567_58495"/>
<feBlend mode="normal" in="SourceGraphic" in2="effect1_dropShadow_2567_58495" result="shape"/>
</filter>
<clipPath id="clip0_2567_58495">
<rect width="93" height="93" fill="white" transform="translate(26.7578 24.7578)"/>
</clipPath>
</defs>
</svg>
